# xmcd
#
# Track frame offsets: 
#        150
#        20598
#        37917
#        56613
#        77260
#
# Disc length: 1347 seconds
#
# Revision: 0
# Processed by: cddbd v1.5.2PL0 Copyright (c) Steve Scherf et al.
# Submitted via: ExactAudioCopyFreeDBPlugin 1.0
#
DISCID=2d054105
DTITLE=Flowtribe - Alligator White
DYEAR=2014
DGENRE=Blues Soul Jam
TTITLE0=Gimme A Line
TTITLE1=Back 'N Forth
TTITLE2=Ooh Yeah
TTITLE3=Gon Gitcha
TTITLE4=Won't Be Long
EXTD=
EXTT0=
EXTT1=
EXTT2=
EXTT3=
EXTT4=
PLAYORDER=
